<svg xmlns="http://www.w3.org/2000/svg" xmlns:xlink="http://www.w3.org/1999/xlink" width="282" zoomAndPan="magnify" viewBox="0 0 211.5 36.000001" height="48" preserveAspectRatio="xMidYMid meet" version="1.0"><defs><g/><clipPath id="bfbca4e72c"><path d="M 5 0 L 206 0 L 206 35.027344 L 5 35.027344 Z M 5 0 " clip-rule="nonzero"/></clipPath><clipPath id="03824f2d80"><path d="M 7 6 L 36.582031 6 L 36.582031 34.351562 L 7 34.351562 Z M 7 6 " clip-rule="nonzero"/></clipPath><clipPath id="636eac9c83"><path d="M 1.097656 0.457031 L 22 0.457031 L 22 21 L 1.097656 21 Z M 1.097656 0.457031 " clip-rule="nonzero"/></clipPath><clipPath id="7e05925fcc"><path d="M 40 0 L 200.539062 0 L 200.539062 35.027344 L 40 35.027344 Z M 40 0 " clip-rule="nonzero"/></clipPath><clipPath id="b12b13b962"><rect x="0" width="161" y="0" height="36"/></clipPath><clipPath id="de51161340"><rect x="0" width="201" y="0" height="36"/></clipPath></defs><g clip-path="url(#bfbca4e72c)"><g transform="matrix(1, 0, 0, 1, 5, 0.000000000000010582)"><g clip-path="url(#de51161340)"><g clip-path="url(#03824f2d80)"><path fill="#ffffff" d="M 33.03125 9.835938 C 30.761719 7.402344 27.53125 6.167969 23.4375 6.167969 L 21.484375 6.167969 C 21.84375 7.394531 22.011719 8.839844 22.011719 10.503906 C 22.011719 10.664062 22.011719 10.820312 22.003906 10.980469 L 23.429688 10.980469 C 26.175781 10.980469 28.160156 11.679688 29.515625 13.125 C 30.890625 14.597656 31.589844 17.007812 31.589844 20.308594 C 31.589844 23.574219 30.890625 25.964844 29.527344 27.410156 C 28.179688 28.835938 26.175781 29.535156 23.429688 29.535156 L 20.238281 29.535156 C 17.488281 29.535156 15.496094 28.835938 14.140625 27.410156 C 12.796875 25.996094 12.109375 23.664062 12.078125 20.476562 L 9.96875 20.476562 C 8.992188 20.476562 8.09375 20.386719 7.277344 20.199219 C 7.277344 20.226562 7.277344 20.265625 7.277344 20.296875 C 7.277344 24.839844 8.414062 28.335938 10.65625 30.707031 C 12.925781 33.109375 16.15625 34.335938 20.238281 34.335938 L 23.429688 34.335938 C 27.511719 34.335938 30.742188 33.121094 33.011719 30.707031 C 35.253906 28.335938 36.390625 24.839844 36.390625 20.296875 C 36.402344 15.742188 35.265625 12.226562 33.03125 9.835938 Z M 33.03125 9.835938 " fill-opacity="1" fill-rule="nonzero"/></g><path fill="#ffffff" d="M 22.011719 10.972656 C 21.941406 14.03125 21.253906 16.292969 19.890625 17.867188 C 18.386719 19.597656 16.132812 20.476562 13.175781 20.476562 L 12.097656 20.476562 C 12.097656 20.417969 12.097656 20.355469 12.097656 20.296875 C 12.097656 18.484375 12.308594 16.9375 12.726562 15.664062 C 13.066406 14.628906 13.542969 13.769531 14.171875 13.113281 C 14.949219 12.277344 15.953125 11.6875 17.191406 11.339844 C 18.085938 11.089844 19.105469 10.960938 20.257812 10.960938 L 22.011719 10.960938 Z M 22.011719 10.972656 " fill-opacity="1" fill-rule="nonzero"/><g clip-path="url(#636eac9c83)"><path fill="#ffffff" d="M 21.484375 6.160156 C 21.136719 4.953125 20.617188 3.945312 19.921875 3.121094 C 18.425781 1.355469 16.164062 0.46875 13.164062 0.46875 L 9.976562 0.46875 C 6.988281 0.46875 4.714844 1.355469 3.222656 3.109375 C 1.796875 4.773438 1.097656 7.203125 1.097656 10.523438 C 1.097656 13.832031 1.785156 16.230469 3.203125 17.875 C 4.207031 19.042969 5.574219 19.820312 7.277344 20.199219 C 7.285156 18.421875 7.464844 16.808594 7.816406 15.355469 C 7.972656 14.6875 8.171875 14.050781 8.414062 13.441406 C 8.960938 12.039062 9.699219 10.832031 10.644531 9.824219 C 12.167969 8.191406 14.121094 7.105469 16.472656 6.558594 C 17.628906 6.289062 18.882812 6.148438 20.238281 6.148438 L 21.484375 6.148438 Z M 21.484375 6.160156 " fill-opacity="1" fill-rule="nonzero"/></g><g clip-path="url(#7e05925fcc)"><g transform="matrix(1, 0, 0, 1, 40, 0.000000000000010582)"><g clip-path="url(#b12b13b962)"><g fill="#ffffff" fill-opacity="1"><g transform="translate(0.658579, 28.170791)"><g><path d="M 9.875 -11.59375 L 9.875 0 L 4.203125 0 L 4.203125 -11.59375 L 0.96875 -11.59375 L 0.96875 -15.28125 L 4.296875 -15.28125 L 4.296875 -15.546875 C 4.296875 -16.421875 4.441406 -17.226562 4.734375 -17.96875 C 5.035156 -18.71875 5.503906 -19.367188 6.140625 -19.921875 C 6.785156 -20.484375 7.613281 -20.925781 8.625 -21.25 C 9.644531 -21.570312 10.875 -21.734375 12.3125 -21.734375 L 13.8125 -21.734375 L 13.8125 -18.5625 L 12.953125 -18.5625 C 12.328125 -18.5625 11.8125 -18.488281 11.40625 -18.34375 C 11 -18.207031 10.675781 -18.007812 10.4375 -17.75 C 10.207031 -17.5 10.046875 -17.195312 9.953125 -16.84375 C 9.859375 -16.488281 9.8125 -16.097656 9.8125 -15.671875 L 9.8125 -15.28125 L 14.03125 -15.28125 L 14.03125 -11.59375 Z M 9.875 -11.59375 "/></g></g></g><g fill="#ffffff" fill-opacity="1"><g transform="translate(15.370596, 28.170791)"><g><path d="M 2.46875 0 L 2.46875 -21.34375 L 8.046875 -21.34375 L 8.046875 0 Z M 2.46875 0 "/></g></g></g><g fill="#ffffff" fill-opacity="1"><g transform="translate(25.915818, 28.170791)"><g><path d="M 20.890625 -7.5625 C 20.890625 -6.425781 20.640625 -5.378906 20.140625 -4.421875 C 19.640625 -3.460938 18.957031 -2.632812 18.09375 -1.9375 C 17.226562 -1.238281 16.195312 -0.691406 15 -0.296875 C 13.800781 0.0859375 12.519531 0.28125 11.15625 0.28125 C 9.757812 0.28125 8.460938 0.0859375 7.265625 -0.296875 C 6.078125 -0.691406 5.046875 -1.238281 4.171875 -1.9375 C 3.296875 -2.632812 2.609375 -3.460938 2.109375 -4.421875 C 1.617188 -5.378906 1.375 -6.425781 1.375 -7.5625 L 1.375 -7.921875 C 1.375 -9.046875 1.617188 -10.082031 2.109375 -11.03125 C 2.609375 -11.988281 3.296875 -12.8125 4.171875 -13.5 C 5.046875 -14.195312 6.078125 -14.742188 7.265625 -15.140625 C 8.460938 -15.535156 9.757812 -15.734375 11.15625 -15.734375 C 12.519531 -15.734375 13.800781 -15.535156 15 -15.140625 C 16.195312 -14.742188 17.226562 -14.195312 18.09375 -13.5 C 18.957031 -12.8125 19.640625 -11.988281 20.140625 -11.03125 C 20.640625 -10.082031 20.890625 -9.046875 20.890625 -7.921875 Z M 15.28125 -8.109375 C 15.28125 -9.304688 14.921875 -10.300781 14.203125 -11.09375 C 13.492188 -11.882812 12.476562 -12.28125 11.15625 -12.28125 C 9.8125 -12.28125 8.78125 -11.882812 8.0625 -11.09375 C 7.34375 -10.300781 6.984375 -9.304688 6.984375 -8.109375 L 6.984375 -7.375 C 6.984375 -6.15625 7.34375 -5.15625 8.0625 -4.375 C 8.78125 -3.59375 9.8125 -3.203125 11.15625 -3.203125 C 12.476562 -3.203125 13.492188 -3.59375 14.203125 -4.375 C 14.921875 -5.15625 15.28125 -6.15625 15.28125 -7.375 Z M 15.28125 -8.109375 "/></g></g></g><g fill="#ffffff" fill-opacity="1"><g transform="translate(48.192189, 28.170791)"><g><path d="M 24.640625 0 L 19.90625 0 L 16.625 -7.984375 L 15.796875 -10.03125 L 15 -8.015625 L 11.734375 0 L 7.140625 0 L 0.21875 -15.375 L 5.953125 -15.375 L 9.640625 -5.125 L 10.421875 -7.171875 L 13.625 -15.375 L 18.5625 -15.375 L 21.65625 -7.171875 L 22.4375 -5.125 L 23.140625 -7.171875 L 26.21875 -15.375 L 31.625 -15.375 Z M 24.640625 0 "/></g></g></g><g fill="#ffffff" fill-opacity="1"><g transform="translate(80.212481, 28.170791)"><g><path d="M 14.90625 -10.578125 C 13.75 -10.847656 12.742188 -10.960938 11.890625 -10.921875 C 11.035156 -10.878906 10.320312 -10.726562 9.75 -10.46875 C 9.1875 -10.21875 8.769531 -9.875 8.5 -9.4375 C 8.238281 -9 8.109375 -8.523438 8.109375 -8.015625 L 8.109375 0 L 2.46875 0 L 2.46875 -15.375 L 7.4375 -15.375 L 7.59375 -11.53125 C 8.21875 -13.195312 9.125 -14.34375 10.3125 -14.96875 C 11.507812 -15.601562 13.144531 -15.738281 15.21875 -15.375 Z M 14.90625 -10.578125 "/></g></g></g><g fill="#ffffff" fill-opacity="1"><g transform="translate(96.2066, 28.170791)"><g><path d="M 19.421875 0.28125 C 17.921875 0.28125 16.78125 0.0351562 16 -0.453125 C 15.226562 -0.941406 14.734375 -1.804688 14.515625 -3.046875 C 13.703125 -1.867188 12.695312 -1.019531 11.5 -0.5 C 10.300781 0.0195312 8.96875 0.28125 7.5 0.28125 C 6.582031 0.28125 5.738281 0.175781 4.96875 -0.03125 C 4.195312 -0.25 3.53125 -0.546875 2.96875 -0.921875 C 2.414062 -1.304688 1.984375 -1.78125 1.671875 -2.34375 C 1.367188 -2.914062 1.21875 -3.554688 1.21875 -4.265625 L 1.21875 -4.359375 C 1.21875 -5.210938 1.53125 -5.972656 2.15625 -6.640625 C 2.789062 -7.316406 3.65625 -7.84375 4.75 -8.21875 C 5.851562 -8.59375 7.15625 -8.789062 8.65625 -8.8125 C 10.144531 -8.832031 11.753906 -8.628906 13.484375 -8.203125 L 13.484375 -9.421875 C 13.484375 -11.234375 12.210938 -12.140625 9.671875 -12.140625 C 8.773438 -12.140625 7.96875 -12 7.25 -11.71875 C 6.539062 -11.445312 5.863281 -11.085938 5.21875 -10.640625 L 2.65625 -13.265625 C 3.570312 -14.015625 4.660156 -14.613281 5.921875 -15.0625 C 7.179688 -15.507812 8.679688 -15.734375 10.421875 -15.734375 C 11.847656 -15.734375 13.097656 -15.5625 14.171875 -15.21875 C 15.253906 -14.875 16.15625 -14.390625 16.875 -13.765625 C 17.59375 -13.148438 18.125 -12.421875 18.46875 -11.578125 C 18.820312 -10.734375 19 -9.820312 19 -8.84375 L 19 -4.171875 C 19 -3.742188 19.109375 -3.441406 19.328125 -3.265625 C 19.554688 -3.097656 20.046875 -3.015625 20.796875 -3.015625 L 20.796875 0.28125 Z M 13.484375 -6.15625 C 12.398438 -6.457031 11.582031 -6.625 11.03125 -6.65625 C 10.488281 -6.6875 10.113281 -6.691406 9.90625 -6.671875 C 9.320312 -6.671875 8.78125 -6.601562 8.28125 -6.46875 C 7.78125 -6.34375 7.375 -6.125 7.0625 -5.8125 C 6.757812 -5.507812 6.609375 -5.15625 6.609375 -4.75 L 6.609375 -4.609375 C 6.609375 -4.140625 6.851562 -3.738281 7.34375 -3.40625 C 7.832031 -3.082031 8.492188 -2.921875 9.328125 -2.921875 C 9.835938 -2.921875 10.34375 -2.988281 10.84375 -3.125 C 11.34375 -3.257812 11.789062 -3.460938 12.1875 -3.734375 C 12.582031 -4.003906 12.894531 -4.320312 13.125 -4.6875 C 13.363281 -5.0625 13.484375 -5.484375 13.484375 -5.953125 Z M 13.484375 -6.15625 "/></g></g></g><g fill="#ffffff" fill-opacity="1"><g transform="translate(117.841927, 28.170791)"><g><path d="M 20.703125 -15.734375 C 20.703125 -14.773438 20.453125 -14.109375 19.953125 -13.734375 C 19.453125 -13.359375 18.859375 -13.171875 18.171875 -13.171875 C 17.828125 -13.171875 17.5625 -13.1875 17.375 -13.21875 C 17.195312 -13.25 17.003906 -13.316406 16.796875 -13.421875 C 17.390625 -13.054688 17.800781 -12.625 18.03125 -12.125 C 18.269531 -11.625 18.390625 -11.160156 18.390625 -10.734375 L 18.390625 -10.578125 C 18.390625 -9.253906 17.703125 -8.179688 16.328125 -7.359375 C 14.953125 -6.535156 12.9375 -6.125 10.28125 -6.125 C 10.15625 -6.125 9.96875 -6.128906 9.71875 -6.140625 C 9.476562 -6.148438 9.226562 -6.171875 8.96875 -6.203125 C 8.71875 -6.234375 8.46875 -6.257812 8.21875 -6.28125 C 7.96875 -6.300781 7.78125 -6.332031 7.65625 -6.375 C 6.90625 -6.375 6.367188 -6.265625 6.046875 -6.046875 C 5.734375 -5.835938 5.578125 -5.570312 5.578125 -5.25 C 5.578125 -5.0625 5.648438 -4.890625 5.796875 -4.734375 C 5.953125 -4.585938 6.222656 -4.457031 6.609375 -4.34375 C 7.003906 -4.226562 7.5625 -4.140625 8.28125 -4.078125 C 9 -4.023438 9.925781 -4 11.0625 -4 C 12.769531 -4 14.207031 -3.878906 15.375 -3.640625 C 16.550781 -3.410156 17.5 -3.09375 18.21875 -2.6875 C 18.9375 -2.28125 19.453125 -1.804688 19.765625 -1.265625 C 20.085938 -0.722656 20.25 -0.128906 20.25 0.515625 L 20.25 0.671875 C 20.25 1.335938 20.03125 1.984375 19.59375 2.609375 C 19.15625 3.242188 18.492188 3.804688 17.609375 4.296875 C 16.722656 4.785156 15.628906 5.175781 14.328125 5.46875 C 13.023438 5.769531 11.507812 5.921875 9.78125 5.921875 C 6.800781 5.921875 4.53125 5.5625 2.96875 4.84375 C 1.414062 4.132812 0.640625 3.191406 0.640625 2.015625 L 0.640625 1.859375 C 0.640625 1.535156 0.71875 1.207031 0.875 0.875 C 1.039062 0.550781 1.285156 0.238281 1.609375 -0.0625 C 1.941406 -0.363281 2.363281 -0.632812 2.875 -0.875 C 3.394531 -1.125 4.019531 -1.320312 4.75 -1.46875 C 3.457031 -1.789062 2.570312 -2.179688 2.09375 -2.640625 C 1.613281 -3.097656 1.375 -3.617188 1.375 -4.203125 C 1.375 -4.992188 1.753906 -5.679688 2.515625 -6.265625 C 3.273438 -6.847656 4.304688 -7.226562 5.609375 -7.40625 C 4.609375 -7.695312 3.800781 -8.160156 3.1875 -8.796875 C 2.582031 -9.429688 2.28125 -10.140625 2.28125 -10.921875 L 2.28125 -11.09375 C 2.28125 -11.769531 2.484375 -12.390625 2.890625 -12.953125 C 3.296875 -13.523438 3.859375 -14.019531 4.578125 -14.4375 C 5.304688 -14.851562 6.15625 -15.171875 7.125 -15.390625 C 8.101562 -15.617188 9.15625 -15.734375 10.28125 -15.734375 C 11.207031 -15.734375 12.015625 -15.65625 12.703125 -15.5 C 13.398438 -15.351562 13.953125 -15.226562 14.359375 -15.125 C 15.191406 -14.957031 15.734375 -15.109375 15.984375 -15.578125 C 16.242188 -16.046875 16.375 -16.738281 16.375 -17.65625 L 20.40625 -17.65625 C 20.519531 -17.226562 20.597656 -16.867188 20.640625 -16.578125 C 20.679688 -16.296875 20.703125 -16.015625 20.703125 -15.734375 Z M 15.3125 0.796875 C 15.3125 -0.265625 13.816406 -0.796875 10.828125 -0.796875 C 8.773438 -0.796875 7.328125 -0.617188 6.484375 -0.265625 C 5.640625 0.078125 5.21875 0.5 5.21875 1 L 5.21875 1.03125 C 5.21875 1.519531 5.59375 1.875 6.34375 2.09375 C 7.09375 2.320312 8.289062 2.4375 9.9375 2.4375 C 11.644531 2.4375 12.96875 2.289062 13.90625 2 C 14.84375 1.707031 15.3125 1.316406 15.3125 0.828125 Z M 13.6875 -10.859375 C 13.6875 -11.378906 13.4375 -11.820312 12.9375 -12.1875 C 12.445312 -12.5625 11.570312 -12.75 10.3125 -12.75 C 9.101562 -12.75 8.242188 -12.5625 7.734375 -12.1875 C 7.234375 -11.820312 6.984375 -11.378906 6.984375 -10.859375 L 6.984375 -10.828125 C 6.984375 -10.335938 7.234375 -9.90625 7.734375 -9.53125 C 8.242188 -9.15625 9.101562 -8.96875 10.3125 -8.96875 C 11.570312 -8.96875 12.445312 -9.15625 12.9375 -9.53125 C 13.4375 -9.90625 13.6875 -10.335938 13.6875 -10.828125 Z M 13.6875 -10.859375 "/></g></g></g><g fill="#ffffff" fill-opacity="1"><g transform="translate(138.451585, 28.170791)"><g><path d="M 6.953125 -7.109375 L 6.953125 -6.921875 C 6.953125 -5.828125 7.363281 -4.914062 8.1875 -4.1875 C 9.007812 -3.46875 10.191406 -3.109375 11.734375 -3.109375 C 12.929688 -3.109375 13.921875 -3.273438 14.703125 -3.609375 C 15.492188 -3.941406 16.253906 -4.414062 16.984375 -5.03125 L 19.671875 -2.59375 C 18.671875 -1.675781 17.492188 -0.96875 16.140625 -0.46875 C 14.796875 0.03125 13.113281 0.28125 11.09375 0.28125 C 9.675781 0.28125 8.367188 0.0859375 7.171875 -0.296875 C 5.984375 -0.691406 4.957031 -1.238281 4.09375 -1.9375 C 3.238281 -2.632812 2.570312 -3.457031 2.09375 -4.40625 C 1.613281 -5.351562 1.375 -6.394531 1.375 -7.53125 L 1.375 -7.75 C 1.375 -8.84375 1.597656 -9.875 2.046875 -10.84375 C 2.492188 -11.820312 3.132812 -12.671875 3.96875 -13.390625 C 4.800781 -14.117188 5.8125 -14.691406 7 -15.109375 C 8.1875 -15.523438 9.503906 -15.734375 10.953125 -15.734375 C 12.429688 -15.734375 13.734375 -15.523438 14.859375 -15.109375 C 15.992188 -14.691406 16.953125 -14.125 17.734375 -13.40625 C 18.515625 -12.695312 19.101562 -11.863281 19.5 -10.90625 C 19.894531 -9.957031 20.09375 -8.9375 20.09375 -7.84375 L 20.09375 -7.109375 Z M 15.03125 -9.03125 C 15.03125 -9.414062 14.929688 -9.804688 14.734375 -10.203125 C 14.546875 -10.597656 14.273438 -10.945312 13.921875 -11.25 C 13.566406 -11.550781 13.140625 -11.796875 12.640625 -11.984375 C 12.140625 -12.179688 11.585938 -12.28125 10.984375 -12.28125 C 9.722656 -12.28125 8.738281 -11.953125 8.03125 -11.296875 C 7.332031 -10.640625 6.984375 -9.882812 6.984375 -9.03125 L 6.984375 -8.96875 L 15.03125 -8.96875 Z M 15.03125 -9.03125 "/></g></g></g></g></g></g></g></g></g></svg>